<?xml version="1.0" standalone="no"?>
<!DOCTYPE svg PUBLIC "-//W3C//DTD SVG 20010904//EN"
 "http://www.w3.org/TR/2001/REC-SVG-20010904/DTD/svg10.dtd">
<svg version="1.0" xmlns="http://www.w3.org/2000/svg"
 width="512.000000pt" height="512.000000pt" viewBox="0 0 512.000000 512.000000"
 preserveAspectRatio="xMidYMid meet">

<g transform="translate(0.000000,512.000000) scale(0.100000,-0.100000)"
fill="#000000" stroke="none">
<path d="M2454 3785 c-45 -23 -54 -24 -101 -14 -81 16 -173 -10 -228 -65 -16
-16 -39 -25 -79 -29 -80 -8 -152 -51 -196 -116 -20 -30 -42 -51 -53 -51 -25 0
-86 -33 -120 -65 -28 -27 -59 -82 -71 -125 -4 -15 -26 -37 -53 -55 -61 -40
-103 -114 -108 -190 -3 -45 -9 -62 -30 -83 -59 -59 -86 -153 -66 -228 10 -37
8 -48 -14 -95 -34 -73 -34 -148 0 -215 23 -45 24 -54 14 -101 -16 -81 7 -163
63 -224 18 -19 27 -43 31 -83 8 -80 51 -152 116 -196 30 -20 51 -42 51 -53 0
-25 33 -86 65 -120 27 -28 82 -59 125 -71 15 -4 37 -26 55 -53 40 -61 114
-103 190 -108 45 -3 62 -9 83 -30 58 -58 155 -86 229 -66 36 10 47 8 94 -14
73 -34 148 -34 215 0 45 23 54 24 101 14 81 -16 163 7 224 63 19 18 43 27 83
31 80 8 152 51 196 116 20 30 42 51 53 51 25 0 86 33 120 65 28 27 59 82 71
125 4 15 26 37 53 55 61 40 103 114 108 190 3 45 9 62 30 83 58 58 86 155 66
229 -10 36 -8 47 14 94 34 73 34 148 0 215 -23 45 -24 54 -14 101 16 81 -10
173 -65 228 -16 16 -25 39 -29 79 -8 80 -51 152 -116 196 -30 20 -51 42 -51
53 0 25 -33 86 -65 120 -27 28 -82 59 -125 71 -15 4 -37 26 -55 53 -40 61
-114 103 -190 108 -45 3 -62 9 -83 30 -59 59 -153 86 -228 66 -37 -10 -48 -8
-95 14 -73 34 -148 34 -215 0z"/>
</g>
</svg>
